<?xml version="1.0" encoding="UTF-8"?>
<svg width="205px" height="215px" viewBox="0 0 205 215" version="1.1" xmlns="http://www.w3.org/2000/svg" xmlns:xlink="http://www.w3.org/1999/xlink">
    <!-- Generator: Sketch 43.1 (39012) - http://www.bohemiancoding.com/sketch -->
    <title>jek logoGroup 4</title>
    <desc>Created with Sketch.</desc>
    <defs></defs>
    <g id="Welcome" stroke="none" stroke-width="1" fill="none" fill-rule="evenodd">
        <g id="Desktop-HD" transform="translate(-76.000000, -719.000000)">
            <g id="Group-4" transform="translate(76.000000, 719.000000)">
                <g id="JK_MRC_EMP">
                    <path d="M129.284982,153.678104 C135.90706,149.842013 142.181215,145.781544 148.071356,141.549362 C151.260405,123.246946 153.098187,100.117131 150.191373,76.047953 C149.231338,75.3928523 148.248926,74.7377517 147.260739,74.0869799 C140.662482,69.7364765 133.602254,65.6089094 126.138521,61.7576678 C120.492359,58.8429027 114.805775,56.2448658 109.199313,53.8798658 C105.729472,52.4123826 102.204049,51.0538423 98.515493,49.7725 C90.9535915,53.0739765 83.3173415,56.9194463 75.7128521,61.3240604 C68.9074296,65.2662081 62.4701408,69.4493289 56.4406866,73.8099329 C54.6563204,83.9769799 53.5353169,94.8243792 53.2184331,106.108993 C52.8979401,117.465755 53.4082746,128.421376 54.6332218,138.723339 C70.9632042,149.689782 89.0883803,158.827282 106.441919,165.254916 C114.013926,161.942617 121.668222,158.095705 129.284982,153.678104" id="Fill-1" fill="#6BCEEC"></path>
                    <path d="M56.4406866,73.8099329 C58.5686444,61.674698 61.6515845,50.5170638 65.4772887,40.7641443 C35.2867077,35.6366107 11.176831,40.635 3.11975352,56.2427013 C-4.01915493,70.0683557 2.92774648,89.3433221 19.6828873,108.603138 C28.8227113,96.7052685 41.3378169,84.7208221 56.4406866,73.8099329" id="Fill-2" fill="#6BCEEC"></path>
                    <path d="M185.32,106.401191 C178.145,115.747919 168.88463,125.138658 157.923627,134.029413 C156.775194,150.577198 154.056056,165.221007 150.75007,175.702617 C175.599102,177.916107 194.853222,172.373725 201.880968,158.759463 C209.022042,144.933809 202.077306,125.658842 185.32,106.401191" id="Fill-3" fill="#6BCEEC"></path>
                    <path d="M140.793856,36.8111745 C139.819384,34.2095302 138.763345,31.620151 137.628627,29.0502517 C136.970317,27.8028188 125.779049,1.25464765 105.525915,0.671694631 C91.746162,0.276325503 78.9459331,12.192953 69.4444718,31.6944631 C84.1409507,35.8710906 97.4139789,40.4705034 109.153116,45.4501342 C120.145158,41.3434899 130.822482,38.4583054 140.793856,36.8111745" id="Fill-4" fill="#6BCEEC"></path>
                    <path d="M63.9672183,178.232836 C72.373662,200.029362 85.010757,213.922836 99.4820246,214.328305 C112.824349,214.702752 125.254278,203.544396 134.656849,185.130151 C125.920528,182.781745 111.403063,177.742232 95.0658627,169.854329 C84.2586092,173.836158 73.7732923,176.632601 63.9672183,178.232836" id="Fill-5" fill="#6BCEEC"></path>
                    <path d="M18.9574472,109.55693 C3.84086268,129.619748 -1.60896127,149.351409 6.40841549,163.177064 C14.9289085,177.867047 36.8119366,182.663423 63.9672183,178.232836 C60.368169,168.89693 57.545088,158.110134 55.6820423,146.320487 C41.8726937,136.123859 28.9114965,123.896275 18.9574472,109.55693" id="Fill-6" fill="#6BCEEC"></path>
                    <path d="M185.772588,105.813188 C201.100669,85.6212248 206.660211,65.7373322 198.592306,51.831594 C190.150493,37.272198 168.594454,32.4253188 141.787817,36.6445134 C147.31993,47.6275503 151.272676,59.5990101 153.926849,71.8864765 C171.675951,86.1428523 181.617007,99.499547 185.772588,105.813188" id="Fill-7" fill="#6BCEEC"></path>
                    <path d="M155.434754,79.7383054 C158.619472,98.2802517 159.097324,117.149027 157.923627,134.029413 C168.88463,125.138658 178.145,115.747919 185.32,106.401191 C184.432148,105.380302 183.51831,104.358691 182.575599,103.339966 C176.154912,96.5090268 167.05912,88.1810235 155.434754,79.7383054" id="Fill-8" fill="#0089B4"></path>
                    <path d="M55.6820423,146.320487 C57.545088,158.110134 60.368169,168.89693 63.9672183,178.232836 C73.7732923,176.632601 84.2586092,173.836158 95.0658627,169.854329 C82.4164965,163.747752 68.6894366,155.93344 55.6820423,146.320487" id="Fill-9" fill="#0089B4"></path>
                    <path d="M129.284982,153.678104 C121.668222,158.095705 114.013926,161.942617 106.441919,165.254916 C110.212764,166.626443 111.987025,167.256292 114.908996,168.192768 C122.960299,170.769161 130.796496,172.673859 138.237852,174.020134 C138.474613,174.062701 138.712817,174.106711 138.945246,174.14495 C139.143028,174.17453 139.334313,174.201946 139.532095,174.235856 C139.900951,173.297215 140.26331,172.335487 140.620616,171.367265 C142.999771,164.603423 145.858944,154.235805 148.071356,141.549362 C142.181215,145.781544 135.90706,149.842013 129.284982,153.678104" id="Fill-10" fill="#0089B4"></path>
                    <path d="M75.7128521,61.3240604 C83.3173415,56.9194463 90.9535915,53.0739765 98.515493,49.7725 C88.2676585,46.2112919 77.391831,43.0382383 65.6505282,40.7915604 C65.5935035,40.7785738 65.5321479,40.772802 65.4772887,40.7641443 C61.6515845,50.5170638 58.5686444,61.674698 56.4406866,73.8099329 C62.4701408,69.4493289 68.9074296,65.2662081 75.7128521,61.3240604" id="Fill-11" fill="#0089B4"></path>
                    <path d="M37.3850704,125.844983 C37.9791373,126.345688 38.5652641,126.842785 39.1701585,127.332668 C39.2315141,127.381728 39.2964789,127.434396 39.355669,127.482735 C44.1977113,131.406124 49.3227113,135.162131 54.6332218,138.723339 C53.4082746,128.421376 52.8979401,117.465755 53.2184331,106.108993 C53.5353169,94.8243792 54.6563204,83.9769799 56.4406866,73.8099329 C41.3378169,84.7208221 28.8227113,96.7052685 19.6828873,108.603138 C24.7328169,114.395151 30.6727641,120.200872 37.3850704,125.844983" id="Fill-12" fill="#0089B4"></path>
                    <path d="M149.06243,68.1196477 C147.348081,57.6755537 144.679472,47.1347819 140.793856,36.8111745 C130.822482,38.4583054 120.145158,41.3434899 109.153116,45.4501342 C120.469261,50.247953 130.361232,55.4014597 138.712817,60.8551007 C142.400651,63.2662752 145.839454,65.6998154 149.06243,68.1196477" id="Fill-13" fill="#0089B4"></path>
                </g>
            </g>
        </g>
    </g>
</svg>