<?xml version="1.0" encoding="utf-8"?>
<!-- Generator: Adobe Illustrator 21.0.2, SVG Export Plug-In . SVG Version: 6.00 Build 0)  -->
<svg version="1.1" id="Layer_1" xmlns="http://www.w3.org/2000/svg" xmlns:xlink="http://www.w3.org/1999/xlink" x="0px" y="0px"
	 viewBox="0 0 205 215" style="enable-background:new 0 0 205 215;" xml:space="preserve">
<style type="text/css">
	.st0{fill:#FFFFFF;}
	.st1{fill:#0089B4;}
</style>
<title>jek logoGroup 4</title>
<desc>Created with Sketch.</desc>
<g id="Welcome">
	<g id="Desktop-HD" transform="translate(-76.000000, -719.000000)">
		<g id="Group-4" transform="translate(76.000000, 719.000000)">
			<g id="JK_MRC_EMP">
				<path id="Fill-1" class="st0" d="M129.5,154.1c6.7-4,13.1-7.9,18.8-12.2c3.3-18.5,5.2-41.6,2.1-66c-0.9-0.6-1.8-1.2-3-1.8
					c-6.7-4.3-13.7-8.5-21.3-12.5c-5.8-3-11.2-5.5-17-7.9c-3.3-1.5-7-2.7-10.6-4.3c-7.6,3.3-15.2,7.3-22.8,11.5
					c-6.7,4-13.4,8.2-19.5,12.5c-1.8,10.3-3,21-3.3,32.5c-0.3,11.5,0.3,22.5,1.5,32.8c16.4,10.9,34.6,20.1,52,26.7
					C114,162.3,121.6,158.4,129.5,154.1"/>
				<path id="Fill-2" class="st0" d="M56.3,73.9c2.1-12.2,5.2-23.4,9.1-33.1c-30.4-5.2-54.7,0-62.6,15.5c-7.3,14-0.3,33.1,16.7,52.6
					C28.3,96.7,41.1,84.8,56.3,73.9"/>
				<path id="Fill-3" class="st0" d="M185.8,106.4c-7.3,9.4-16.4,18.8-27.7,27.7c-1.2,16.7-4,31.3-7.3,41.9
					c24.9,2.1,44.4-3.3,51.4-17C209.5,145.3,202.5,125.8,185.8,106.4"/>
				<path id="Fill-4" class="st0" d="M141.1,36.5c-0.9-2.7-2.1-5.2-3-7.9c-0.6-1.2-11.9-28-32.2-28.6c-14-0.3-26.7,11.5-36.2,31.3
					c14.9,4.3,28,8.8,39.8,13.7C120.1,41,131.1,38.3,141.1,36.5"/>
				<path id="Fill-5" class="st0" d="M63.9,178.7c8.5,21.9,21.3,35.9,35.6,36.2c13.4,0.3,25.8-10.9,35.3-29.5
					c-8.8-2.4-23.4-7.3-39.8-15.2C84.3,174.2,73.6,177.2,63.9,178.7"/>
				<path id="Fill-6" class="st0" d="M18.6,109.7C3.4,129.8-2.1,149.9,6.1,163.5c8.5,14.9,30.7,19.5,57.7,15.2
					c-3.6-9.4-6.4-20.4-8.2-31.9C41.7,136.5,28.6,124,18.6,109.7"/>
				<path id="Fill-7" class="st0" d="M186.1,105.8c15.5-20.4,21-40.1,12.8-54.1c-8.5-14.6-30.1-19.5-57.1-15.2
					c5.5,10.9,9.4,23.1,12.2,35.6C172.1,86,182.1,99.7,186.1,105.8"/>
				<path id="Fill-8" class="st1" d="M155.7,79.6c3.3,18.5,3.6,37.7,2.4,54.4c10.9-8.8,20.4-18.2,27.7-27.7c-0.9-0.9-1.8-2.1-2.7-3
					C176.4,96.7,167.2,88.1,155.7,79.6"/>
				<path id="Fill-9" class="st1" d="M55.4,146.5c1.8,11.9,4.6,22.8,8.2,31.9c9.7-1.5,20.4-4.6,31.3-8.5
					C82.4,164.1,68.5,156.2,55.4,146.5"/>
				<path id="Fill-10" class="st1" d="M129.5,154.1c-7.6,4.6-15.2,8.2-23.1,11.5c3.6,1.5,5.5,2.1,8.5,3c8.2,2.7,16.1,4.6,23.4,5.8
					c0.3,0,0.6,0,0.6,0c0.3,0,0.3,0,0.6,0c0.3-0.9,0.6-1.8,1.2-2.7c2.4-6.7,5.2-17.3,7.6-30.1C142.3,146.2,135.9,150.2,129.5,154.1"
					/>
				<path id="Fill-11" class="st1" d="M75.4,61.1c7.6-4.6,15.2-8.2,22.8-11.5c-10.3-3.6-21.3-6.7-33.1-9.1c0,0,0,0-0.3,0
					c-4,9.7-7,21-9.1,33.1C62.4,69.3,68.8,65,75.4,61.1"/>
				<path id="Fill-12" class="st1" d="M37.2,126.1c0.6,0.6,1.2,0.9,1.8,1.5c0,0,0,0,0.3,0c4.9,4,10,7.6,15.5,11.2
					c-1.2-10.3-1.8-21.3-1.5-32.8c0.3-11.2,1.5-22.2,3.3-32.5c-15.2,10.9-27.7,23.1-37.1,35C24.4,114.6,30.5,120.4,37.2,126.1"/>
				<path id="Fill-13" class="st1" d="M149.3,68.1c-1.8-10.6-4.3-21-8.2-31.3c-10,1.5-20.7,4.6-31.9,8.8c11.2,4.9,21.3,10,29.8,15.5
					C142.6,63.2,146,65.7,149.3,68.1"/>
			</g>
		</g>
	</g>
</g>
</svg>
