<!-- Generator: Adobe Illustrator 21.0.2, SVG Export Plug-In  -->
<svg version="1.1"
	 xmlns="http://www.w3.org/2000/svg" xmlns:xlink="http://www.w3.org/1999/xlink" xmlns:a="http://ns.adobe.com/AdobeSVGViewerExtensions/3.0/"
	 x="0px" y="0px" width="205.131px" height="214.9px" viewBox="0 0 205.131 214.9"
	 style="enable-background:new 0 0 205.131 214.9;" xml:space="preserve">
<style type="text/css">
	.st0{fill:#FFFFFF;}
	.st1{fill:#0089B4;}
</style>
<defs>
</defs>
<g id="Welcome_1_">
	<g id="Desktop-HD_1_" transform="translate(-76.000000, -719.000000)">
		<g id="Group-4_1_" transform="translate(76.000000, 719.000000)">
			<g id="JK_MRC_EMP_1_">
				<path id="Fill-1_1_" class="st0" d="M129.613,154.105c6.687-3.951,13.07-7.903,18.844-12.158
					c3.343-18.541,5.167-41.64,2.128-65.956c-0.912-0.608-1.824-1.216-3.039-1.824c-6.687-4.255-13.677-8.51-21.276-12.462
					c-5.775-3.039-11.246-5.471-17.021-7.903c-3.343-1.52-6.991-2.736-10.638-4.255c-7.599,3.343-15.197,7.295-22.796,11.55
					c-6.687,3.951-13.374,8.206-19.452,12.462c-1.824,10.334-3.039,20.972-3.343,32.522c-0.304,11.55,0.304,22.492,1.52,32.826
					c16.413,10.942,34.65,20.06,51.974,26.747C114.112,162.312,121.711,158.36,129.613,154.105"/>
				<path id="Fill-2_1_" class="st0" d="M56.363,73.864c2.128-12.158,5.167-23.404,9.118-33.13c-30.394-5.167-54.71,0-62.612,15.501
					c-7.295,13.981-0.304,33.13,16.717,52.582C28.4,96.66,41.166,84.806,56.363,73.864"/>
				<path id="Fill-3_1_" class="st0" d="M185.843,106.386c-7.295,9.422-16.413,18.845-27.659,27.659
					c-1.216,16.717-3.951,31.306-7.295,41.944c24.923,2.128,44.376-3.343,51.366-17.021
					C209.551,145.291,202.56,125.838,185.843,106.386"/>
				<path id="Fill-4_1_" class="st0" d="M141.163,36.479c-0.912-2.736-2.128-5.167-3.039-7.903
					c-0.608-1.216-11.854-27.963-32.218-28.571c-13.981-0.304-26.747,11.55-36.169,31.306c14.893,4.255,27.963,8.814,39.817,13.677
					C120.191,41.038,131.133,38.303,141.163,36.479"/>
				<path id="Fill-5_1_" class="st0" d="M63.962,178.725c8.51,21.884,21.276,35.865,35.561,36.169
					c13.374,0.304,25.835-10.942,35.257-29.483c-8.814-2.432-23.404-7.295-39.817-15.197
					C84.326,174.166,73.688,177.205,63.962,178.725"/>
				<path id="Fill-6_1_" class="st0" d="M18.674,109.729C3.477,129.79-1.994,149.85,6.212,163.527
					c8.51,14.893,30.698,19.452,57.749,15.197c-3.647-9.422-6.383-20.364-8.206-31.914
					C41.774,136.477,28.704,124.015,18.674,109.729"/>
				<path id="Fill-7_1_" class="st0" d="M186.147,105.778c15.501-20.364,20.972-40.121,12.766-54.102
					c-8.51-14.589-30.09-19.452-57.141-15.197c5.471,10.942,9.422,23.1,12.158,35.561
					C172.166,86.022,182.196,99.699,186.147,105.778"/>
				<path id="Fill-8_1_" class="st1" d="M155.753,79.639c3.343,18.541,3.647,37.689,2.432,54.406
					c10.942-8.814,20.364-18.237,27.659-27.659c-0.912-0.912-1.824-2.128-2.735-3.039C176.421,96.66,167.303,88.149,155.753,79.639"
					/>
				<path id="Fill-9_1_" class="st1" d="M55.451,146.507c1.824,11.854,4.559,22.796,8.206,31.914
					c9.726-1.52,20.364-4.559,31.306-8.51C82.502,164.135,68.521,156.233,55.451,146.507"/>
				<path id="Fill-10_1_" class="st1" d="M129.613,154.105c-7.599,4.559-15.197,8.206-23.1,11.55c3.647,1.52,5.471,2.128,8.51,3.039
					c8.206,2.735,16.109,4.559,23.404,5.775c0.304,0,0.608,0,0.608,0c0.304,0,0.304,0,0.608,0c0.304-0.912,0.608-1.824,1.216-2.735
					c2.432-6.687,5.167-17.325,7.599-30.09C142.379,146.203,135.996,150.154,129.613,154.105"/>
				<path id="Fill-11_1_" class="st1" d="M75.511,61.098c7.599-4.559,15.197-8.206,22.796-11.55
					c-10.334-3.647-21.276-6.687-33.13-9.118c0,0,0,0-0.304,0c-3.951,9.726-6.991,20.972-9.118,33.13
					C62.442,69.305,68.825,65.05,75.511,61.098"/>
				<path id="Fill-12_1_" class="st1" d="M37.215,126.142c0.608,0.608,1.216,0.912,1.824,1.52c0,0,0,0,0.304,0
					c4.863,3.951,10.03,7.599,15.501,11.246c-1.216-10.334-1.824-21.276-1.52-32.826c0.304-11.246,1.52-22.188,3.343-32.522
					c-15.197,10.942-27.659,23.1-37.081,34.954C24.449,114.593,30.528,120.367,37.215,126.142"/>
				<path id="Fill-13_1_" class="st1" d="M149.37,68.089c-1.824-10.638-4.255-20.972-8.206-31.306
					c-10.03,1.52-20.668,4.559-31.914,8.814c11.246,4.863,21.276,10.03,29.787,15.501C142.683,63.226,146.026,65.658,149.37,68.089"
					/>
			</g>
		</g>
	</g>
</g>
</svg>